<mxfile host="app.diagrams.net" modified="2021-08-29T06:49:56.479Z" agent="5.0 (Windows NT 6.1; Win64; x64) AppleWebKit/537.36 (KHTML, like Gecko) Chrome/92.0.4515.131 Safari/537.36" etag="V7WOPb7wrOmSwsLIatEB" version="14.9.7" type="github">
  <diagram id="G41Idf1I5daVonH2653p" name="Page-1">
    <mxGraphModel dx="1408" dy="691" grid="1" gridSize="10" guides="1" tooltips="1" connect="1" arrows="1" fold="1" page="1" pageScale="1" pageWidth="850" pageHeight="1100" math="1" shadow="0">
      <root>
        <mxCell id="0" />
        <mxCell id="1" parent="0" />
        <mxCell id="hCxStZuKwBm3qGZRfhTF-1" value="" style="shape=image;verticalLabelPosition=bottom;labelBackgroundColor=#ffffff;verticalAlign=top;aspect=fixed;imageAspect=0;image=data:image/png,iVBORw0KGgoAAAANSUhEUgAAAc8AAAE4CAYAAAA973iKAAAgAElEQVR4Ae19X+gmWXnm73IucxcvBZONMYQk2zdmbuKVOAHXhAQymUgYA/tjQAKGhOC4uxmbsFEEY4vLmKw03RdKGJxJdCDdRGeZtESM0tAYJBMZwthGbdl1cTMgEyVwludUvVVvvfVW1amqU/++7yn4qFNV57znPc85dZ563/Pnuwg8iAARIAJEgAgQgVEIXIyKzchEgAgQASJABIhAIHmyERABIkAEiAARGIkAyXMkYIxOBIgAESACRIDkyTZABIgAESACRGAkAiTPkYAxOhEgAkSACBABkifbABEgAkSACBCBkQiQPEcCxuhEgAgQASJABEiebANEgAgQASJABEYiQPIcCRijEwEiQATmIfAgXHvsMlxc6fpdD7fmZbBc6vv3wq37M8TfuR4uruy4fCOKRvIcAdYyUftfpMs7y+RKqUSACGyFQPHOP3zzwVYKTMv3/q3w8JWr4RrJM+JH8pzWjDKmOuiLlBEBiiIC54XAQd95kmejmZI8G3BscXHQF2kLqJgnETgJBBLfeSGrO7D4ahdv0xtVyKpcwE/dqxGK6a+Hazevli7i6+HyqctwoeOEEF7Gc9yT/G7CtVrm99it8DIkxme1DrXVbPJvuWTvhUuRBas1yqbbtq4khmYgkPAiOS9BHBMxDRoNvmrU8iKYFy8+N+l6X8bWyzCjqExKBIhACCHhnQdO8p4KgQnRVe9kSVwVGRZEVb3Pkr56HkJojTkWMmIaid8lPz7Xblubf0nElb6FPlWfFIRISZ58DbIgkPAiSaPWL0HZEKsXxb5YkqZqyGXDxldg65405qGXIUuBKYQInDkC5XtWWWS1Rdf+AL4M+h2vrEOMO7bIzMBa9gGN9LbfiHHK99+Lr/PQYWTVImLcVATuPI9WbkXORt+DXdJtu3mFdb9I1Reb26gfFO4Urb9u3G6awv3TeJl0GqexN14GnRfDRIAITEQg4YMZkvW7KTnpe+77KhE70stHdvkhXrlsu/LTZKjzFjk9HwBRtvpQj5pFGfKxrnQ9YJDkuXmlJbxIptE2VI4vkP5yLd0qXpqBe8VXoZZVhysib2TOCyJABMYjkPDOQ+jA++pbfkobL30lFwRW6FF9TLvxlSVpnrvkqLJ3n0cZJE8FE4PTEUh4kUyjLfKS8QM1BqHj6bAoN3DPbeySlmciQAQyIZDwziOngffVfa419NLH5yVp3oQnShFZjO+5ics4Vl78cFf9j84bYc8y9u7ZdAe5puW5eUUlvEi20UrDtC4R3Zi9NEP3dPrNcaECROBUEUh451H0ofe1tBzr2bOF3OraS19CWnmZ9DyKGB/eJiFUI0+7cKOc8rnuhxp9SPmBX+UhH/wi/9j1S/LcvP4SXiTvJWg0UnnR0PCnu21lFqCeUFR8PfZ8XW6OHxUgAkdDoCSdjvHCce+wkVURlfQJHe9uSZSVyxYQSj+jl6poeSGEW1jqAr2r+yZ/6X+qKhHCLPsmLlWpkGFgNgITyVM35PgS4iUpGmp8IeRF0LuBJN0behlmF5gCiAAR2BqB2BcYC9DrH7bWc8f50/LcceVQNSJABIjAEgjAbduaBEjyHAU1yXMUXIxMBIgAETgwApEgm2u9q9KQPCsoUgIkzxSUGIcIEAEiQASIgEKA5KnAYJAInBcCaozcFjxOSNNjYnrih56RWSesJpNgDF7PwKyjFCFaOBYRXh8QAZLnASuNKhOBPAikkmdJnNUMy3LWpSJIEKceQ4tEqp7X+sqEtI5ZoHVEhojArhEgee66eqgcEVgSgUTytMuioJK2HnVY1PXuyZZuj12d/7+Qkg/PRGAjBEieGwHPbInA9ggkkqenqCZHkKtrZZqEMc31cEunNVGOfzkD03ITgurvwKrNCmpUVneN378XbunlbrUqZx8ieZ59E1AA6BflpDs4VeazDk7v6LVbNu5WA5dutFDLRfStjr9w13auQT6ZepiKaZGu3nxgB65x9gG9rZLk2QvPGT3ki3JGlS1FLTvszp1u9IQhSSN/bVePWVbWkBoTjUSqrNGKYCHmpNvaRPLco2v8pOupbs9TQyTPqcidWjq+KKdWownlGd/Ry56oels3bYXWmSrZsW0pIj7ptqbKXYNRhCJBKhzsc3utcVrKNR7zEG9Bca69A/X9OBmsrMdrN68WW/RV3gWZBCbxTRmdPKrJZVLGO8XfJYrLus5PZJoN6y1WG1yTPBcFvadRdTQa3SlVe82KZaC/7J2GfIl9J3UcmaCBe5Kf3rdSLIP4rG6kdcOtrYthXa6Ga+YFaJZlUaApfBIC4zr6wsLUbaLItGFVVnrUsoVwpWPU59NrI3W5KygkMJI89UdJhXGUIe+qISn9F2PyvveNV3pxyr6gJlBV39JPNPqYso9T96Ku0re0NpMXz0Wpu8is4svz5nKnog3Z8gqw25xJnovhPtCoOhuNNBCb3ryUkl412vZfABUy6hcBL12H/CjPvihybXUx16JL6wWQvBYDmYJnIWDalJZlOvrezsvELcRAtrQfLfg83Lb6A6EZTnsnCrxr/BZxjcf3tkcft08wFmBn3Zfx7j8IL5vqrz7kQexl39H4iOq8V+NhRW5xTfJcCvXBRlW4KdqNpmwgtuFaPb0GZr/yYpzy5fDi6zx0GHnpa68s+t6QbKs7r3eCQCJ56rbgal58TFWuOPF4qI+pRrJBeY3YB7tIxLSnVAVxNklKW6F1UpVXxFQRYSLGFSnDu6U/xJGJlWGvpZ7FM2bOuj00J5PhI76nn3PyaelSg7BZiOS5EPTyAjS/Ogt3i+8WNY1Vk5Ono9fApDGXL0HUQV4IN759+dSXnY4PXWxHqJ/rsOjq3ZNnPO8EAVX/ViPV/vracv3xV3ojpAO17UXLP+m2kYaphkOHCzJT72H5sPEuVwnqvNLqqEroBApZRX+lP7iVLk69xXz76rpaftMhx5HpEqUXzynFmrdInguhPdiovMag76nOy1VRx9UR4n00/qIzqzo3N3798rUarI5P8tQIM0wEehBQ75SNNfBOFwSorEed3k2LvBQp6fj6/dX3B8NKfyvDXkNW1KtDB3luyVWn8WSm3hssy7IRSJ5L4asbiJfHUAPxnms5nc9L0rwJt7B6EWP8piuoIMyEr0yvLPFeR1ro2amfLgTDRODUEFDkY4um3xn7bPB9WcA17unT0MOUpfFMClB6HDRB6v5Ch5EkyqDbVtDj2UVgoFF5DbFxr0wvbtfSkqzGJRpxmwpULpwqrW60QqhWft+LYuOaa08X715TTV4RgRNEwLxHuoQNsireIRkXrN5ZcXurc+U9kj5AnmnC0vkgnPr+RZ2K4aTCZdu0IqsxUfQlnTLL/kD0MtZwJSM+h3yFkScz9Z4t88rXtDwXBbynUSU1EJO+RYbNhl4VJcr2rMyr4ZpeqqLlhXJHEzRw90UZqYtXvkpBBogAESACx0aA5Hns+vO1j8QlFmYZhWTmY8W7RIAIEIEJCJA8J4C29yRwAYk7qNKV5FlBwQARIAJEYC4CJM+5CO4pfSTI5s4clXokzwoKBogAESACcxEgec5FkOmJABEYh0Bj4sy4pIxNBPaCAMlzLzVBPYjAuSBA8jyXmj7pcl589bsh/N7tEN75HH9zMQCOX/jGSbeX0YW7fedueP0vPR4u3vAIfzMxAI43nv3c6DrYXQKS5+6qhAqNR+Di3X9N0pxLmjr9uz4zvhJOOcXr3vwYSXMmaeoPj4fe9I4JzcUsM2ptnjH0jzgmvVni1PuPO1HbYl1ftY4wLpfSs8GNfK3fhNIyCRFYA4EL3fEznOdDYo2KO0oeuuNnOI/1Pa7uS2JShBcX5MsCe2eSWbFgX8jNplcL3KMi9rm9LuLXs7+FSLvkl39JJfqNK+zs2N9/9Qfh48/+bXjL5Yer31N//nx45dvfmy2bAk4LAZLnAu7q02oi80rTIMxqBxK9ownD3p8HtO4p63VUjbguUkWAJXnWu9iY3WmGZml78vU9HS4Vb5Cz8zzYfwcaVeBpkR9871/Dez78TPixt7yn/KPnZrt86BffHT5w4/Y04Ux1kgiQPEmeizZskmezE26RYuoHxUTyLIjK1yHLv/uA/KyVqAi3YeVKS4vPC8tzUD9Js+D5S//wz52kaesLBMuDCAABkifJc9E3geTpE5ftlAev55CnJTdd44roqtv6nmsZVjGLf9Ww8lX6JPK06ZX4pYN/8TdfCbAqB/FXHzk3nv/i0mpR/gEQIHmSPBdtpiTPbclz8C+jFNFVDUHf0+EqggpEcjV7LGvC1WFJpu956SXewmeMZXqk+bq3/kHAsxfvfj185FMvtKxSkC3HQBeunAOIJ3mSPBdtpiTPjclT/olDW3easDxybNyzE4DGXpcThKoJSx0Thrr0W6h1wuL0iBOk+doPf9TI9d7Xv9myTn/l959uxOHF+SFA8iR5LtrqSZ5bkyeqtyS8yvWoLMUGUZZNoXXPpK+IUJrO0HMhTGAh/+wjs20H9JMsMp4xxmldtbgGoXYdcNVasv2rF+91Ref9M0CA5EnyXLSZkzz3QJ6LVvGhhMPdCresJkIQJ1y0Q8ebH/9gIx2Ws+zlwGzhJ/7kU3F5zdt+96O9HwJ70fnoepA8SZ6LtmGSJ8lz0QY2QjjcsZYAQaJ9FqcWD/etJl2EcW/rA8TvLbF5/P03t1btpPMneZI8F23gJE+S56INbIRwb4LQ2KUnsDY1gW499gmL01rSWj+uTR3RQEZGJXmeKHk+9dFPjmwKy0QneXaQ5298Olx+8BPhx6txyI548nziUpVlajWE5/5xKcnLyMU4pyYVhKe4XTHOqeXA5QsC2+qwZK51Q3hr/XLhot3SKDM+erAb1JYHyfNEyROktQcCHUee7w0Pf/BuuPyz5u/RJ97b6LBsB7H29Y8/8UK4fPJD83Q6OHliK8+jECjctW/8tT9q1Bestamk9/q3P9mQheUsWxyWyPEegFSsJQqL+8hHl1sa9bDlkiGS5wmT5x4IdAp5PvIbA1aYWGMbnUme9R7QRyBQTKSxH1hzZsqCLLU8EPPaBz4ILEliohAOqx9I5qiHN8HLYm+XFq1VVpLniZPn1gSajzwLq/SR3/hQeKSyTF8ID79VEe1bPxEerZ7dDQUJI/4L4eEnPl1atJ8Ojzx511iOhezCwkUYcr182pZxbRXbZ58Ob9Tk3tCt1OfAblv9JxJ7JlBvks/ciTSwWOEO1Z043MJrHpYgtXsWZGInEKXMJl5T/9S8htzSqIOtLH+S5xmQ55YEmps8L0GEJWG+sUGCBdnVZPah8EgkJyFBRWZwmf6Zuo7EJnKFBOX6MkRLU8X3LM+mLmWaihwLmQ3dQPLVc/UBoAlXh3c25qnJc88u3J//zT9ukByssByWyqNPfqIhF9btWodnddqJT9baTv1guP3FrwVxS4OQ3/uxv8yC1xRsvLW10AeTtPSHCyzwHHU6VkeS55mQ51YEOoU8m2OeQnIFATVcunrc0BJiRTwFeTbSXWnea5Khk0+Mb8hUj3k2yFeIEHmUaeJzKUf5XOte6SppnfPOyXOPBIq/FtOdLMIghxwHLDktG0SzVgfeZ3VK2ewEqRTXLcpkLWqUEe7gtcom+nsfCOKW9iz/LaxPkucZkecWBDqFPJtEJ0TikJomIB1ukFGTKKXDqwnTyrXXyL8po05b6tZwyerJTiV5esTeqa+U15wPQJ57IlB0sHZMMPeyErHQpE2ttWG8taat1SkEZF23fWtSgZeNL+XCGRbfmoddVgRSf+mVB5UKKLPWb4txZ5LnAcgTs2bH/hqk9VO/GvT1mrNwdb66sfthj7iERJxnmoA8gook2iS+Kl+xBuVcEa6TT5LlaSzLSt5luGjlcRkutO46bld4QfLEmOXYn3Xb6us9jIFatyU639wzM7GGsmpPpYVW9e4LBWA56zxRLhCfd8BVq+P2WWeWjHQ6CfeRr5f/1HueZWk/ELw4a487kzwPQJ4NAlKdaPL9//ifw8VGBNrQsYsYqvsecSWSZ2kdNsYV1Zhn25ot8oouYu2CvSL3jZtWjU9Gy1NdX5Rp6rxFZzkXBF49F0u1IUPidpxVvU/tlLrSaeLLFd6SQL1JQktYTiBjIRac+4isC/ux9+14X581bccMu9a1wkUK3XVZ8PFhLXdYvGsc1i0NPbw1nXbc2RLs0rouRp53ezS/++V6qnuul3VPcnqKPulRg4BUJ5p8H+S0EYE2dKxIsoMgKuLSrs+7oSAdh1it9SakFGfcCvl1WJ5XZCKQzMoVnSSfIl0x/mqsSpVPRYie7pocVZo4WQnX+vkQNqreJzWinkRLvTtbEaglmCUnlNjt/jDOutRhyRpk12dt2fggSG/s0iMrxPPWkc5Z4pOCizfW2WUx23/GQT2veZA8j2Z5/syj4WLsTzrmDQh0HHkKga10dl29Qp4r6SB1M3Q+IHmClNcmUDuRBwSTunftlI7Xum67rLspsm0a61pNsQTt+Ki3ZMV+AOhNFeyHSEqeVu8x15bIuwgfMj2L2SvfmPzHxF2cPJ9egJyW+lLOJXdMBaTEzUpAKxNoVt2HCGbkc7u8pHBbkTxzvQciZ00CtWSxdGdvrTu0oa4xyJR3vSsOiMJO6EmZoGQJVxMj8vL0xz05PBd4rhnLkoc+2/obcsVa1+2aS4Y2JU9x7d79Vg3fZz8fwju/XF9LKN4HEcuzV0P4rEoHkn7fSxI7BOsa1s8Qyz6XFz3HudYiTyg7Aa1IoNl1H0mQBSF6VmSXO5fkmeMdsDLWINAt3Ix4w63l1uVmnNMb2GU3qa5oi4m1jK3ljLLYw1qffeOsNu2Ya6tryhjylq7bxcmzBd636vFOIU8d5+nPh/AdfUOFoxUr5Knuu8FXQ3hfafU+rUhWx/3OS7Uu9mWfc63zyBFehIBWItBFdM9GoB6p7vTeQd22+j1akkC9sbKlOnn7TqcQkE0z9tpaZKkToDDRxn5A6sk3lvi9MVvP+lxi5q3VJWVjhy1dt7sgzyESE5K1Vqkl0/hckW98LteKTPFCi8wYJ7NreeyLMRR/MQICgf6H/9RYxnLj2c8NqTPq+WK6nxuBngB54r37wjdGNZ/kyHasDISxRAfvKTTk+vTSjLlnNzwY6xq2xCuTfjy9u1zOVsaQO3VM+RB3DkHnct1ChzFjpouTZx85CYFVLllDYvJcKqJBnkKGQo4hBMlL0sXrAUu1K2/9xTw2LPrmOi9GQJh4pDrlt73rv4bX/u2HudSOcrR8+wXM6xFWrqqnrBUUlvG+eO/Mh/4uhB/9e27ti4kjcGPq9oQOdc3DWk2wRnMdc92mdtxTiM+6gj2XrZRhiktV0qacLQHKbkIpaa1uGBuGRZpyIB7qym54gbYEtzGwx4eZ3qBB5O6PPBUZipJybpChJU+5tlblAHkuMfYp+uY6L0JAKxAnyr+I7udmdaK8ByfPpYgTbQwuTE2cKWNlud5NkWNdt7DUchzeZgBjJ+xYchHd7KbrdjKR1d9+oOQa2/XKKNax1cG7BgHayVQpGMGit39Vp9uRDYNg8eEhRLo78pSJPZUrV5HpJPK06Y11630hz73nVfCce7rjtBU66Xol4kSZs+veIs5igk9cjzlm3WRLzggrcIu0BybPJYnT63jFsprzzo1NCz3suyid7FhZOr7dpm7KNnTeuKe3pGdIX+saT9kvV5elK2wt4yly7W5KQ+PdsLrxkWXrLPU6ehrmEkVX+obrtIOwJI52nQp5ekD3um27LM/nQuiaMBRUmq5yTLnv6T7nXoOAxq7xRHzd2a9InChzQ3etR66wu1Zz50Q4pewHJc8liRPty1p8W1id8m6PteQkXdcZFlUua8/qZt2UKaTsfaiMsRC9cuYq45htC+3Wjbp/BE4WG/28EZ5CDilphBhlHNJLI3E0eSKeJjtYoEKo0cUqblghPrEs5dq6bUvi1jJjJar4nm5z7nmNZM69BgGpTjT5vnTWKxMnytzQUfTIeba7DOWUvSdZqt7ntCUv7Zy23pd2aeKUsqADlw4vlytRZI852zHEFELqk2+XYeDDAGQz5bC6NUjgymUYctlKnmMtPEnXdbbW7JwyDk1qAvnbsWnBAdavnoUMfTGhCrhhPNa6hWO6vsbPZ9MmU3Q1lKn3GwSkOtHk+yCBDYgT5W3omJmM4h6z6s+vL+MetVi/2fzz6/in1I3t8fSWfHD7Yis/ux2fcgfLX4tV+utn2ErQbN9XxctoAat6n9qOutIt8Z6vRZy6TOjoppKLljM17Llu+7bPG8pniAyG0uvnnoUnxDHGWvdmxepNFXSeKeGcZfSIGPqCFPFx4BEg7qVaz/iYwUQm4Lao23aJF/IoMlMazZg4Y/9RBfEbpLURcaKMDT2WIJWW5SkkqAlN/hi7ILPmxu5ChBJfrmuCbca/DHZnIvtcOqWs5wXJE+svx/763sUtiHPM+7RkXOlcpe5T12NanTySGhqTtDLstSUX0XGstZ6L8EBaooOc8QEy9ej7QBD5+gzPwBRMkSYuH+p7CfhsH5bnlMbUIC3V8S6xHKVPv4YeK5Jn+19UlBUYrdAmWer4kQz1P63ocdWYVjadF5mltftWuV7grOqwD++1nnX1DedMnMDe/pPJlMkvkDN3eYrXDkAultxxPdZat2UcY7lqvZYoo9VNk6UOwxVr3bRat5TwYrNtu16uc7ifAvzScRqkVXa8axMnytjQY0PyjISoXbyVq7WwNMeRZ/NfX4p/XrGEmplAD0Ce506caO/okEEmuqMes/AeMryJOSlLL1L6FBAl3I9wY+I8ljiRB9LMncjkWda4l+PomxAEN23KnsApepA8O2YCzyH5FOCXjtMgrTc8ErYgTpSxocdW5KktR+gw2/IUqzUzQfbhs3PyJHHWb7Rd8J+yzVydOsS1hJp84Sbd22FnOYNMxxCxtTr7NmiYUna4hJGHfMhgFi10nmttal1InmdAnlsRJxraHskzjllOtTwH//h6IULdMXmSOHWXGuIWb5r8YO2kEotndY4dk2xqs8zVHD09qzN10s4ypZkmleR54uS5JXGiSe6CPK+Uk3xKt+2jT3wiPDKZPEGO9aSiwmV7N1wuvUHDTsmTxOl3vLJ0Rkg0lQDthgFjLTpfm2XuTtXVWp17tKxTECN5njB5bk2caICLk2efq/OUnu2QPEmc3V2sdWumEMQca65bk+WeeBbk0EeCl+aIVmfs2+aM7TGtPxt3ueaaLnkPxBkbmOr05Suc5wmuXYVjeitYLiaJsx9bjwiHJg5ZS27qLNZ+zfI+tZsmwFLuG1c8FasTKNLyPFHLM/e/o0x95Wh5TiBKz2LeGXku8e8oU9vYXtNZosB11+GRLch078cYve0WeviIPqrViXoheZ4oee7lpSN5niZ57qV97VkPz0WJe97hWXCpk4w8eWve8yxmu+sQymLHgVNc2WuWY2xeJE+S59g2Myo+yZPkOarBnFhka316SzI8iwxbDR7lgPVp131iaYgmf/txAKuz60PiKOUmeZI8F22rJE+S56INbOfC4zZuxg2viREWmt1z1SPYnRczbqBu5zJg9yIcmERknx3BJT2EOcmT5DnURmY9J3mSPGc1oBNIbK1PTASCtQmLzboy8WzKfqt7gMlu/QfCtB8GuIcya6t0D7pP0YHkSfKc0m6S05A8SZ7JjeVEI3qTaqwlJtdY4nLUw/sYkHLJ+cgfB7ZeSJ4kT9smsl6TPEmeWRvUQYV5rkshFDljW7+jH3BDW2taygcrNNcevXvAieRJ8ly0HZI8SZ6LNrADCcdm7EIk9gziPAVXJqoD6zzt5uxw6R7VHd3VxEieJM+utpHlPsmT5JmlIZ2IEGyUgJmoQp6w0nL9y8ceIZrzZ+B7LI/WieRJ8tTtIXu4QZ5qoT/vP9LcunAENtkriQKJABEYjcDFuz7jbzHHrfem4zK6Fk44wUNvesdkkiDB+gR7ws2FRSMCh0Hg4vl/mk4SJNg2djfuHabuV1H0Ax9/huQ5wqoc+mB44r99bJV6YyZEgAj0I3DR/5hPiQARIAJEgAgQAYsAydMiwmsiQASIABEgAgMIkDwHAOJjIkAEiAARIAIWAZKnRYTXRIAIEAEiQAQGECB5DgDEx0SACBABIkAELAIkT4sIr4kAESACRIAIDCBA8hwAiI+JABEgAkSACFgESJ4WEV4TASJABIgAERhAgOQ5ABAfEwEiQASIABGwCJA8LSK8JgJEgAgQASIwgADJcwAgPiYCRIAIEAEiYBEgeVpEeE0EiAARIAJEYAABkucAQHxMBIgAESACRMAiQPK0iPCaCBABIkAEiMAAAiTPAYD4mAgQASJABIiARYDkaRHhNREgAkSACBCBAQRIngMA8TERIAJEgAgQAYsAydMiwmsiQASIABEgAgMIkDwHAOJjIkAEiAARIAIWAZKnRYTXRIAIEAEiQAQGECB5DgDEx0SACBABIkAELAIkT4sIr4kAESACRIAIDCBA8hwAiI+JABEgAnkReBCuPXYZLq50/a6HW3kzzCft/r1w6/4McXeuh4srOy7fiKKRPEeAxahEgAgQgfkIFOT58M0H80WtKeH+rfDwlavhGskzok7yXLPxMS8iQASIQCB57tayHtE6SZ4jwGJUIkAEiMB8BBLJUyy9O7D4ahfv5R2tgXEBP3WvfhjTXw/Xbl4tXcTXw+VTl+FCxwkhvIznuCf53YRrtczvsVvhZUiMz2odaqvZ5N9yyd4LlyILVmuUTbdtXUkMEQEiQASIQCICY8jzMlwIgQnRVQRVEldFhgVRVeQqhFc9DyG0xhwLGTGNxO+SL+RauW1t/iURV/oW+tREK0RK8kxsKIxGBIgAESACNQIl6VQWWW3RweKryKYks4oMIUATmA7XwuuQlz54BFuSmRdf56HDyKVFxLip5DvPo5VbkXOt6hFDdNsesdaoMxEgAgdGoCDPiiS7SmLJCvH0PYecGqJ0XPWgcq17p9MAACAASURBVNOKJSuWqRtfkaF5XhBhk/jF3YuyxeeVFVoqEGXQ8lTVwSARIALrI1C6waTz0woMdaw67pSw6Uh9EaV+lYXV7jRvYQxOntuOVgtNyk8n2HN4W/IsCBh1UehRWbYuxgPk2VNnJM89t0HqRgTOGoGanKoOUPDYnDzbxB6JUnW2uNbWl30uRQllJ38xd5lELXDjUCbydMlOFa3zeUmaNzERSX3QxPiXodGW4r0yjpUX21jP0hWvDXr3lMpHCtJte6Taoq5EoIFAaRWgE1SkFKMs3UnZjrShl4yHmY5Vp9FhSevdE9fiY1fnrzGUfDY/ZyJP+aioPA+F3Go2bQeeKH7lcq3SiksYngAhVCNPj2dGDMvnuu01CNV+QMnHnsjfvCJmKUDynAUfExOBLREoyfNOCNaKa0/mKDs6cZG2Os2r4VrvkghTTumY9bKGK8ZqMUla43W607Vx5Trmcz3ckvyqmZ4S4YhnUxdSJ9W5/Ojwyty6Z2R59ephFuWY+hLZuk61vFC0s+hmr+6b/FveASFMkDKXqhyxtVJnInCCCNTkWY9jlcVsWJ5lB2c7PLkuO9LuJREOdBPSaLdstHyQf9RTxj2tRVLoHd2I0rF7ROCox1sDCEQ8Dd7EeAC05mNank08eEUEDoSAIs/SFVeNIWry1GEpnb5XEmF7rMu4XSUtziPTFG7CWl4kUlhaQuCQCZ2UNVoRbJVfnV6rwvB4BIBt1VYkOclTkEg6kzyTYGIkIrBHBJrkWayxKwlGk6MhpVgS3VHqsBTTuyfPcPaee/fU+JomZ22F1mJVeaIsZRl1yK7TMpSEQMSxufFClY4YV1CkBEieKSgxDhHYJQKKbEr9KmstI3kWVqO4VssZsl5H69wrLMy2xVjp2cC1Lo/Ns1rOMjSu2pDHCyKwHAIkz+WwpWQisDACNdnUGWGc0EzMiERqCEyTq0N6rmVZZ5JkeRYEqKxHnV7nX91HeYye8szTUZ7xTAQ2QIDkuQHozJII5EHAI09ZJtK35MBMIPKIybunlfae63s6rNNV4UIHPe4WyVaNeVZRERiU14jNCyKwOAIkz8UhZgZEYCkEOsizWlKgrb6SMGU5hJ6o4xGTd08Xw3uu7qW5XY1OXcSJfJVsrQbDRGArBEieWyHPfIkAEThBBLo/aNprb23xi7T1+K7++CniVrOU8RG0xsfG/XvhFpcH2YqK1yRPFxbeJAJEgAhMQWAqeZbEqTwCdkYyrrWb2z6vtRWLvmP8uI7YH6K134sPybMXHj4kAkSACIxBYCJ5epO6NHnpsKjj3ZOlQTm2M+yQL9mf+5nkee4tgOUnAkQgIwITydPTQJMXyLXPTSvpY5oR2xnG+PUyJLiM6x2d6vvR4i1lX7t5tfwnHHEri6Ur8eV+qZSTR2VBx2ftrSHr/ESm2UpQyrvhmeS5IfjMmggQgVNDIB95ardsnICVeztDIS49plkSXU2gyvUrJKhcy9U/3qh7zVnTbTyKyWQlwYpM9WFQTTZr3TOkvHHTIXluXAHMnggQgVNCoCCLetJPbTkV99IIoCCQmrgikebezjASV48+8XmtQzHj2ViAnet1xYJ9EF621avlluSpd59y89FprLyNrkmeGwHPbIkAEThFBNqWVlVKl2iqp1VALC9NKNoKrSLqvwiL5KKIMJFsKlK2xIxMrAx7LeOrsvzJnCvXLGTFsusPiZKUHZmtfD1dahA2C5E8N4OeGROBM0MgkTyOjco88izITFl7JRiRUJVrtLhd5yWE61m8moS7sdUWc0nCltjstZCncq+25YtcVSYtR4clceo9ib/RmeS5EfDMlgicHQIkT/VH0+3aLwhQWY86iosdiEmRko7vEZB+3hmuCbllAXoyo14dOiAPPLfkqtN4MlPvdZZhnQckz3VwZi5EgAi4BHBqsCjysUXrK79HGI30xYxW7QqNZGuJSdIMyhNXqiHrRjpTlsYzyaicaav10OSow0gSZcB9WxKuJzP1nqiw0ZnkuRHw55TtV78bwu/dDuGdz/E3BwNg+IVvjGk5PUsIpIO6cys8rMaqmi4+k77lNhx6XnS+hSvRbFYfi2HSXzEd+Zii7iauIRytV4M8i7ILGaa5XQ1emrB0PghL/eqZtDYOrqNOzlhkGbcaE0Xdd8o0egkxWhmxnYE0FUaezNR7XnlWvEfyXBHsc83q3X9N0pxDmjrtuz6T2orKDk0RXsNSiR1Uc4u3ptvQplcdXlTBPrfXRXwhh+K/RtFJC0Ha+CE09EstJuMRgY0QIHluBPw5Zas7f4bnf0gktZ2GlSMpFAGW5NmwNPUXvw5Lcn325Ot7Olyma5Cz81wItqGTzpNhIrAjBEieO6qMU1WFhDmfMDWGKe2kICrtjqvD0Rr0yFHfc8lN5Yzn1m2o0rtWZHxeWJ6D+qmsGCQCe0SA5LnHWjkxnXTHz/B8Ik1pHi556YSK6Krb+t4a5GnJt1KEASKwfwRInvuvo8NrSMKcT5gaw6QGEcmvZwmBJkoRqO/psDzXZ0++JlwdlnT6npde4vFMBA6AAMnzAJV0dBV1x8/wfCJNaw/lhBxt3WnC8sixcc9O6Bl7XYyvXlQTlsprO2GoS7+0QmaP9f1XfxA+/uzfhrdcfrj6PfXnz4dXvv297HlR4LERIHkeu/4OoT0Jcz5hagzTK70kvGopirJEG0RZSmzdM+krIhQNhp4LYWK8NWWpitJPsljp/OB7/xre8+Fnwo+95T3lP4bUY8RYavPQL747fODG7ZW0YTZHQIDkeYRaOriOuuNneD6RHrw57E79L/3DP3eSpt3uDgTLgwgAAZIn28HiCJAw5xOmxnDxCjujDP7ib74SrUpLkn3XN57/4hkhxKJ2IUDy7EKG97MhoDt+hucTabaKOXNBGMv0SPJ1b/2DgGcv3v16+MinXmhZpXDhcgz0zBsPLU82gDUQIGHOJ0yN4Rp1dup5wOL0iBOk+doPf9Qo/r2vf7Nlnf7K7z/diMOL80OAluf51fnqJdYdP8PziXT1CjQZ3nj2c+GVf/muuXucS4xxwnrU5IlrEGrXAVetjo/wX714rys6758BAiTPM6jkrYtIwpxPmBrDrevzqY9+Mrz+lx4/JIHC3Qq3rCZCECdctEPHmx//YCMdlrPs5cBs4Sf+5FNxec3bfvejvR8Ce9H56HqQPI9egwfQX3f8DM8n0q2rHOR58YZHDkegcMdaAgSJ9lmcGmu4bzXpIox7Wx8gfm+JzePvv7m1aiedP8nzpKt3H4UjYc4nTI3h1rUq5Hk0AvUmCI1degJrUxPo1mOfsDitJa3149rU5d4Wkudy2FJyiYDu+BmeT6RbNyxNnkchUIxzalJBeIrbFeOcWg5cviCwrQ5L5lo3hLfWLxcu2i2NMuOjB7tBbXmQPLdE/0zyJmHOJ0yN4dbNxpLn3gkU7to3/tofNUgP1tpU0nv9259syMJyli0OS+QgS5CKtURhcR/56HJLox62XDJE8jxyqzqI7rrjZ3g+kW5d7R557plAMZHGWmRzZsqCLLU8EPPaBz4ILEliohAOqx9I5qiHN8HLYm+XFq1VVpLnWkifcT4kzPmEqTFcoim9+PdfDam/x//wT+OEIRDmxU/9arj4iV+urvc2C9eb5DN3Ig0sVrhDdScOt/CahyVI7Z4FmdgJRCmzidfUPzWvIbc06mAry5/kmVqLjDcZAd3xMzyfSCdXRE/CSIQgw7G/n3k0XPzcb++WQH/+N/+4QXKwwnJYKo8++YmGXFi3ax2e1WknPllrO/WD4fYXvxbELQ1Cfu/H/jILXlOw8dbWQh9M0tIfLrDAc9TpWB1JnmMRY/zRCJAw5xOmxnB0BSQkGE2aQrIgT/xryw4JFH8tpjtZhEEOOQ5Yclo2iGatDrzP6pSy2QlSKa5blMla1Cgj3MFrlU309z4QxC3tWf5bWJ8kT6ktnhdDQHf8DM8n0iUqqkGecMWm/n72t2oS2RGBooO1Y4K5l5WIhSYkutaG8daatlantA/ruu1bkwq8bHwpF86w+NY87LIikPpLrzyoVECZtX5bjDuTPKvqYGApBJYkzM++2tb67pfnE9SSOs+V3S7x/DsN8qz+/7P5n5a6s+oM74RArdsSnW/umZlYQ6lxEMtofm10S4DlrPNEuUB83gFXrY7bZ51ZMtLpJNxHvl7+U+95lqX9QPDirD3uTPKcWsNMl4zAXLLoSy/k+fRzp02YGoNk4EdEzEaeO3DhepOElrCcQMZCLDj3EdmIquiNasf7+qxpO2bYta4VLlLorsuCjw9rucPiXeOwbmno4a3ptOPOlmCX1pXkuTTClB90x5873Emenw/hOyGE77wUwt2yDiLBfrlZIXgedVLxRSZiwop9+lt1GmvV6riI9dnPL0/itTb5QlnJc2MCtQSz5IQSu90fxlmXOixZg+z6rC0bHwTpjV16ZIV43jrSOUt8UnDxxjq7LGb7zzio5zUPkueaaJ9pXrkJU8sT8mpZniUZAvKK8HDv1RDeV1qpjbQqfiRAdS0E2yDh50JopH+uJtmWLpmt4iWaUXby3IhA7UQeEEzq3rVTcLWu2y7rbopsm8a6VlMsQTs+6i1ZsR8AelMF+yGSkqfVe8y1JfIuwodMz2L2yjcm/zFxSZ5j0GLcSQhosssdFgLTijXIT5GlzVssyq74IlvI0I3/LWVpllZtRdaZSVP012XNFV6EPH/hd8LFT769Wv7y0JveEW7fkU+QXJo35ViyWLqzt9YdyLprDLKp6bgrEIWd0JMyQckSriZGaODpj3tyeC7wXDOWJQ99tvU35Iq1rts1lwyRPHXNMbwIAtLpL3G2BFflIZajJjdlHeqCTiJP4/7V8kiel+FiA+Lcws2IereWW5ebUbeRsWG77CbVFW0xsZaxtZxRFntY67NvnNWmHXNtdU0ZQ97SdUvyHFO7jDsJgYrQFrDExpDn+14q1Bdycy1JZala2Y34JXmKS3fJMlrZkyphIFFWy3MD4vTGypbq5C2UKQRk04y9thZZ6gQoTLTRE4EQ1pNvLPF7Y7ae9bnEzFurS8rGDlu6bkmeY1sx449GwHb+Oa8twVWyHctTyDNams/VE4kmWZ4qvbh1q7wX+EjQskdXQEKCbOS5AXGieHasDCSxRAfvQTnk+vTSjLlnNzwY6xq2xCuTfjy9u1zOVsaQO3VM+RB3DkHnct1ChzFjpiTPsbXM+KMR0B1/7vAY8kTeesTtbjmLdip5WnkCzNJkKvnkPDfIM3WDBMTTmyRsRJye1YkOdc3DWk2wRnMdc92mdtxTiM+6gj2XrZRhiktV0qacLQGOWTNrdcPYMNpEyoF4qCu74QU+UOA2Bvb4MNMbNIhckqcgwfNiCOQmzHOXt0RFNchTtt5LOcv2fBsRJ7CACxOdnfxSxspyY2hdt7DUchzeZgBjJ+xYchHd7KbrdjKR1R/jrIIxzrnGdr0yinVsdfCuQYB2MlUKRrDo7V/V6fLZMAgWHx5CpCRPrzZ4LysC5052ucuftXJKYbPIc0Pi9DpesayWwKlLJvSwna10sl1pUu7bbeqmbEPnjXt6S3qG9LWu8ZT9clPKaC3jKXLtbkpD492wuvGRZess9Tp6GlIKxzhEYA4Cucnj3OXNqYuutKl/R4Z4jb8k++lfX305ii6Dtfi2sDpFn7GWnKTrOnvu6KnWntXNuilTSNn7UBljIXrlzFXGMdsW2q0bNWECJ4uNft4IewXiPSKQE4FzJ7vc5c9ZN1Nkdf0Z9hrrOD190YFLhzeVXDy5Y+/ZMcQUQurLwy7DwIcByGbKYXVrkMCVyzDkspU8x1p4kq7rbK3ZOWUcmtQE8rdj04IDrF89Cxn6YkIVcMN4rHULx3RdheJ9IpALgdzkce7yctXLVDkeeW5FnLoM6OimkouWMzXsuW77ts8bymeIDIbS6+eehSfEMcZa92bF6k0VdJ4p4Zxl9IgY+oIU8XHgESDupVrP+JjBRCbgRrdtSu0yzmwEzp3scpd/doXMFGDJcw/EObNI2ZJL5yrElLoe0yrgkdTQmKSVYa8tuYiOY631XIQH0hId5IwPkKlH3weCyNdneAamYIo0cfnQVEWZjgikIpCbPM5dXiruS8XT5EnibKJs/8lkyuQXSJy7PKWpVXEFcrHkjuux1rot4xjLVeu1RBmtbposdRiuWOum1bqlhDnbNgUlxpmFwLmTXe7yz6qMDImFPEmcbTDRIYNMdEc9ZuE9JHoTc1KWXrS1ad8BUcL9CDcmzmOJExKRZu6yFc+yxr0cR9+EILhpU/YETtGD5JmCEuPMQiA3eZy7vFmVkSExyJPE2Q2kXfCfss2clmaXbsBNurfDznJO3WtXymGtzr4NGiTNmDNcwshDPmQwixY6z7U2tQ4kT40Gw4sgcO5kl7v8i1TSCKEf+Pgzi/87ygh1dhfVrqGEtZNq4XlW59gxyTUAmaOnZ3WmTtpZo2ypeZA8U5FivMkI5CaPc5c3uSIyJXzt336YSdLpipGlM+K+TSVAa3WOtejWRHSqrtbq3KNlnYIjyTMFJcaZhcC5k13u8s+qDCZeBQHr1kwhiDnW3CqFMpl4FuTQR4KX5ohWJ6AgeZoGwcv8COQmj3OXl7+GKDE3Ah4RDk0cspbc1FmsucvSJ89umgBLuW9c8VSsTmBC8uxrGXyWBYFzJ7vc5c9SKRSyOAKWKHDddXhkCzLd+zFGb7uFHlzaR7U6US8kz723zhPQLzd5nLu8E2gSZ1EEz0WJe97hWXCpk4w8eWve8yxmu+sQymLHgVNc2WuWY2xeJM+xiDH+aATOnexyl390BTDBZghY69NbkuFZZNhq8CgHrE+77hNLQzT5248DWJ1dHxJHKTfJ8yg1dWA9c5PHucs7cFM4O9XjNm7qv0ZBGpoYYaHZPVc9gt07cCiTzCyWM3YvwoFJRHJPzkdwSQ9hTvIcQojPZyNw7mSXu/yzK4QCVkXAWp+YCARrExabdWXi2ZT9VlctUEdmdus/EKX9MMA9lFlbpR3idn+b5Ln7Kjq+grnJ49zlHb9FnFcJvEk1YoHZM5a4HPXwPgZs+Y78cWDrheRpEeF1dgTOnexylz97BVHg4gh4rktLLNjW7+gH3NDWmpZywgrNtUfvHnAiee6hFk5ch3d9JoTcBHLO8k68uZxs8bAZuxCJPYM4T8GVicrDOk+7OTtcukd1R3c1SJJnFzK8nw2B5/+J5JmL7G/cy1YtFLQBAtgoATNRhTxhpeX6l48NijOY5Zw/Ax8UvnEEkufGFcDsiQARIAJE4HgIkDyPV2fUmAgQASJABDZGgOS5cQUweyJABIgAETgeAiTP49UZNSYCRIAIEIGNESB5blwBzJ4IEAEiQASOhwDJ83h1Ro2JABEgAkRgYwRInhtXALMnAkSACBCB4yFA8jxenVFjIkAEiAAR2BgBkufGFcDsiQARIAJE4HgIkDyPV2fUmAgQASJABDZGgOS5cQUweyJABIgAETgeAiTP49UZNSYCRIAIEIGNESB5blwBzJ4IEAEiQASOhwDJ83h1Ro2JABEgAkRgYwRInhtXALMnAkSACBCB4yFA8jxenVFjIkAEiAAR2BgBkufGFcDsiQARIAJE4HgIkDyPV2fUmAgQASJABDZGgOS5cQUweyJABIgAETgeAiTP49UZNSYCRIAIEIGNESB5blwBzJ4IEAEiQASOhwDJ83h1Ro2JABEgAkRgYwRInhtXALMnAkSACBCB4yFA8jxenVFjIkAEiAAR2BgBkufGFcDsiQARIAJE4HgIkDyPV2fUmAgQASJABDZGgOS5cQUweyJABIgAETgeAiTP49UZNSYCRIAIEIGNESB5blwBzJ4IEAEiQASOhwDJ83h1Ro2JABEgAkRgYwRInhtXALMnAkSACBCB4yFA8jxenVFjIkAEiAAR2BgBkufGFcDsiQARODcEHoRrj12Giytdv+vh1l4huX8v3Lo/Q7k718PFlR2Xb0TRSJ4jwGJUIkAEiMB8BAryfPjmg/mi1pRw/1Z4+MrVcI3kGVEnea7Z+JgXESACRCCQPHdrWY9onSTPEWAxKhEgAkRgPgKJ5CmW3h1YfLWL9/KO1sC4gJ+6Vz+M6a+Hazevli7i6+HyqctwoeOEEF7Gc9yT/G7CtVrm99it8DIkxme1DrXVbPJvuWTvhUuRBas1yqbbtq4khogAESACRCARgTHkeRkuhMCE6CqCKomrIsOCqCpyFcKrnocQWmOOhYyYRuJ3yRdyrdy2Nv+SiCt9C31qohUiJXkmNhRGIwJEgAgQgRqBknQqi6y26GDxVWRTkllFhhCgCUyHa+F1yEsfPIItycyLr/PQYeTSImLcVPKd59HKrci5VvWIIbptj1hr1JkIEIEDI1CQZ0WSXSWxZIV4+p5DTg1ROq56ULlpxZIVy9SNr8jQPC+IsEn84u5F2eLzygotFYgyaHmq6mCQCBABIkAE0hDYljwLAgaBFXpUlq0hx6IsA+RpyVEBQPJUYDBIBIgAESACcxHIRJ4u2SndOp+XpHkTE5GUFRjjX4aKTCEq3tNuXbVUJVq+6lplHYOeZezds+kOck237UEqimoSASJwKghkIs/ScqxnzxZyq+tO8iwn9mDMVVy2gLYkz3oTAyNPj2fGqiifa+uzQaiF1VrnUV5rwj5wlZI8D1x5VJ0IEIEjIlCSTseEoQvZiMAjv9Y9I6tFhh2WYUmUbStTlpOUY5laXgjhFpa6NEjX5C+6V9UihIl0IltZu1W84wVInserM2pMBIgAEZiHQCRPQ2ItYp6XxamnJnmeeg2zfESACBABgwAm87Rm+5I8DUr9lyTPfnz4lAgQASJwOgiU7lq98UJVOJJnBUVKgOSZghLjEAEiQASIABFQCJA8FRjHCKp1V1bhwWngevAeA/hmzENPCMCkAD2LzuaV6yt17l8cWb14TQSIABFYAQGS5wog581iKnmWxKlmz8WZc4ogca3HQezzuhwyw65jJl8dsT+Ui4D7c+FTIkAEiEB2BEie2SFdWuBE8mysvyp11OSlw1IE755s6fXY1fn/7dchX7LnmQgQASKwVwRInnutmU69JpKnJ0+TF8hVWaFe9Hgvprkebum0nZH1wutyfdiVcgeTmL6+Fy3eUrb+C6Xif//E0pX4xt1sZLU3174arpm/darzE5lmZ5W+MvEZEehEYM77WXqHqvWfpp1zWKUT9S0ekDy3QH1WnnNezmbG2i0b96GESzdaqEIo9uUtSCwurE4hTy9OSXSuDCFB5VoOrV1U/L890ou9Y1lkPFdkqg+D4nlzTLeRpgkTr4jACASmvp8lcaq2r99PKMBhlRHVsEJUkucKIOfNwn6dCtHJ2RKen3tBFvWYZXxRGzuHlH85ZElHXm6PGG1WMU6PPlZGSXSaCAf/9uj+g+LPenXeWq4ns/NejYcWxzARSEdgInlyWCUd4p3EJHnupCLS1Zj4cqoMxPLSJGW/covoKq9IOIoINUEp2TZYkbIlZkS0Muy1jK9Wbiz5QCjOenJT02LG85IIHZmtfD1dbEF4TQSSEFDvjI0fCVK9Q/a5vdZtl8MqzQ3rLVYbXJM8NwB9XpbzXs6CzNoWViRUsSorBeu8hHDl//r0WZNwlbQVKGQV6coORHcOiG+vhTyV9dsSW25WXZGllePI9PJx77Uz28kdOwbc/KjwliDtRPEQTn5pUv3OtDAfSZ76g7Z6P6MMqW9LxBxWaWG+4A2S54LgLiN6+stZEKB94Uot3RcbebWJNqbwSCmpwEp/K8NeQ17Uq0MHeW7JVafxZKbeSyrPFpGKTrJheW+hxtg8PdzHyth9/KJ964/LZrjj/TPlKt7Vut1XHhz9gYt2rtp+RbCQlYJ1jNOjj5URr83Eus5+QyYGnu6wCsnTNNr9Xyryscq6DbmMZF8Em7acmKM75PgyqpezkWRQnhCfeTkb6UxZGs8kt9LK0npoctRhJIkyTt1tS/KU1rG/s2nTWsG+91PFK4izSVLaCq2jqrxiu1fvmvsu1SklVJEyh1UEkuQzyTMZqr1EVC+MVanxcjY7WHkhm1/BhfundruWRCVjjJqwbF6JL2fnWGQpr3p58UXdKdPoZazhSkbUG1/rCiNPZuo9W+bdXDfrtlMtKadZplPXN1IabLVlE9NfD3rp0CX+kkrHEde6rr+b14u/rUJ9SBuKssTdqDfjGJd/sXSps8Q7eKDantWm8X7ah8V10ZZri1NiNaxKuan+XzPt/a4SOoFCbw6rONB03CJ5dgDD20RgvwiMIU9FYEJ0soxHiLMiQ9PxC+FVzz1vQqFLJGSJ3yU/PtfEUBJnJd9ci7zq+X5rpNbMYFg/KIcglHWon7Xqxjx0iRd5aTxVmhbW6llvUOlvZdhryIl6deggz+UDSvLVaTyZqfdE3kZnkudGwDNbIjAdgZJkxENgzpXrPXZCTfdfw7r3OimtlJdeWTsxaoxTEoIXX+ehw0jsEYK+58nT+u0yrMjH6qfLZp9ZbOxzDqvM39Gshem8GyTPefgxNRHYAIGCPCuS7NLA65D1vb7OHDJ1XJWHdiHqsB9fkYmVh/ytVaLj6LDKf99BVV6raAPvZh2muV3NR5PFTueXil3UqXanN2at6x2NYP13yjR6GWv4VIdVSJ66wTFMBA6BQLPj7VTZ6+z0vUZn7kjRcfXjeB/WZqFHNYbqxldkYp+fJHlqoBg+ZQRInqdcuyzbiSKQiTwtmVm0Op+XpHnzVni4Gt8US9VzE2u3rhofi+StrpG/JvTO/K2ivCYC6yNA8lwfc+ZIBGYikIk8WxOGCrnVbNoe8qrcjHoyT4wPF6BMijHy7HjpjPxnAsjkRGA2AiTP2RBOF/CDH4Xwwj+H8N+/UP+e+8cQ/s8PpstkynNAoCQlM1GoXoZUWnMe+bXuGVktMjSWocBbEmXlssV9ka2Xqmh5dgwtypqYv+iR+fz9V38QPv7s34a3XH64zwYRrAAAEe1JREFU+j3158+HV779vcw5UdzRESB5blCD3341hP95N4R3fSaEdz7X/uH+8/+0gWLMkgikIhCJUizMMpGQ5/1UIfuJ99IrD8Lj778ZHvrFd9drVNXHCe5/4Mbt/ShMTTZHgOS5chV89bshXD7fJkyPRD/51ZWVY3ZEIBEBuG1bs30PSp63v/i18GNveY9LmrU1X8xIfc+Hn0lEiNFOHQGS54o1DBetR5J9926/vKKCzIoIDCEQCbK58UKV5IDkCRetJcih64986oWqyAycLwIkz5XqHlakR5K/d7tw0f7j/w4BRGmtUrhwv/H9lZRkNkTgjBCAFekR5evf/mR00b549+sBRGmtUrhw7339m2eEFIvqIUDy9FDJfA+k6BGnZ1ViPNQSKCYU8SACRCAfAiBFjzg9qxLjoZZAMaGIx3kjQPJcuP7vfrtNnCBHjH12HV/6ZjsN5PAgAkRgPgJ/9eK9FnGCHDH22XX8xd98pZUGcnicLwIkzwXrHu5WO6MWxJnihv3Q3zUJ9L/8rwUVHSka+ot+KM8zXwvhR/8+UgijE4ENEIC71c6oBXGmuGHf9rsfbRDoz//mH29QAj9L6C/6oTzv/dhfhtd++CM/Mu9mQYDkmQXGthCs4Xz3XzcJEK7bPotTSwFBWVcvxkW3PmAB2w8C6AkyJYFuXTvMvw8BrOF83Vv/oEGAcN32WZxaHgjKunoxLrr1AQvYfhBAT5ApCXS52iF5LoTt//hKm/ww23bM8ZEvNWXgesvDs6Q1wWPtKo/TR+DGs58Lr/xLz7jDTiF49MlPtMgPs23HHL/y+083ZOB6y8OzpDXBY+0qj2UQIHkugOsXvtEkPRDMjQnDI571udXuQ7Aq4TrWZOmFofPRD3gH/vBzdVlR7pf/79FLlU//pz76yfD6X3r8UAR64/kvNkgPBPPEn3xqNCie9bnV7kOwKuE61mTphaHz0Q94B974a39UlRXl/tI/jLRGMoNA8swMKMjNzpZFRzzVpWkJa6uNE7wZw9gFybqmt9IvVzV65cRHAlzVqS73XLrsVQ7I8+INjxyGQEFudrYsOuKpLk1LWFttnODNGMYuSNY1vZV+udqvV058JMBVnepyz6WLlkPy1GhkCGNZibbI5q7TtFYsyGoqEU8t3v97rf1BIC5aO5sYHw5r6ze1XDYdyFHXnQ2jbMDi3A8hz6MQKJaVaIts7jpNa8WCrKYS8dS29OB7/9r6IBAXrZ1NjA+HtfWbWi6bDuSo686GUTZgscVB8syIurfExFvLOSZLEJG17pDPmofd4AH6YEKUHFY/EH7qgXWtmAi19WQoD2dLnrg+umWdWi998TR57p1AvSUm3lrOvvLaZyAia90hnzUPu8ED9MGEKDmsfiD81APrWjERauvJUB7OljxxvZVlTfJMbVED8bzON9fmBpa8MLN1rQOWlp1daz8I8E8wmmhSJzbZcsG9DTLd4sByG10GhGGJ2rIBi3O3Pi157pVAvc431+YGlrwws3WtA5aWnV1rPwjwTzCaaFInNtlywb0NMt3iwHIbXQaEYYnasgGLLaxPkmemVmGJAJ1srsk9IBTbsa/VgVtS8dzGKKfWD2Ufct1ivFSnkTBco7lwS61a7wMB5ZZjL+POos/WZ48890iglgjQyeaa3ANCsR37Wh24JRXPbYxyav1Q9iHXLcZLdRoJwzWaC7fUtut9IKDccuxh3JnkKbUx4+wt4YDFkvOwY6m55Xu6eta0tTolnSWYPjcsnglZeuf3vyhS1znbZUV2gpcd1035OFhH8zy5vPj3Xw1jfo//4Z/GCUMgzIuf+tVw8RO/XF3vZRaut4QDFkvOw46l5pbv6epZ09bqlHSWYPrcsHgmZOmd3/z4B0XsKme7rMhO8LLjuikfB7kVJ3lmQBSdvSYB2/lmyCLYiUPIY+nDzjztmwxkLW9cdx12/SrISOOH8Ng1sV15Dd33lgN5WyFiA3+t45hx3SEdtn4eSRBEOOX3M4+Gi5/77d0RKDp7TQK2882BuZ04hDyWPuzM077JQNbyxnXXYdevgow0fgiPXRPbldfQfW85kLcVIjbw1zqOGdcd0iHlOckzBaWeONYqQQfbZ3X1iOp9BCvQkszSaw+tNdlHiNaaRFrv6CIrS6hrzWy1+XZZvXbsc81xZw/HnPcmkaYQLcgTfxq9IwK1Vgn067O6pmIJK9CSzNJrD6012UeI1ppEWu/oIitLqGvNbLX5dlm9duxzzXFn4Ejy9FpT4j3PrQkX4FKHdS/qcbncedqPAhB33zirR+7e2CU2i9AWnJCsN+7YR9Y5ymvHaqGXZ3Uiry3HnXOUtU9Ggzzhhh3z+9nfqr/+d0CgnlsTLsClDute1ONyufO0HwUg7r5xVo/cvbFLbBahLTghWW/csY+sc5TXjtVCL8/qRF5bjjsjf5LnjBq3k16GCGZGVjGpXQqDyTtLHdYiw/XQYcdlPdemXdail91YN/HSeFpXsxB5VznhKtfEv5ZruUufXPcb5Akrcs5vYwK1k16GCGYuhnYpDCbvLHVYiwzXQ4cdl/Vcm3ZZi152Y93ES+NpXc1C5F3lhKtct9e1XMvQh+TZVSsD97ewlGDdwZ2pO/AlXMSeaxX3hg77MSEbKUg669q1Y6ieJd81QUlkTj179ddldUoe1nWbaymSyN/qnJU8N3ThbmEpwbqDO1N34Eu4iD3XKu4NHfZjQjZSkHTWtWvHUD1LvmuCksicevbqr8vqlDys6zbXUiSR33cmefah0/MMxKBJzFvC0ZN88iObryWoyYJVQmuRdY0DqiQxaEkXk2z0kaK7tT6XwtWWMWUC1qm6brOT50YECmLQJOYt4dDtMVfY5msJKkc+1iLrGge0eVnSxSQbfaTobq3PpXC1ZUyZgLWl65bkqVtSYtiSBEh0KQvJqmS3kLPWm40/9nqKRabzsJaxjHt6VrO3Vyx2LrITo3JjOyePU3TdLkKeKxOoJQmQ6FIWkm7vCNst5Kz1ZuOPvZ5ikek8rGUs456e1eztFYudi+zEqNzYzsljK9ctyVO3ssSwHQ8cGitLFJsUzSMhPW6YJKQn0lzLz2IjxDeG9KdYhT1Faj2aU0bruk21ykUJfJxgrBQ4we2LM2Ti531MSLolz4uR5y/8Trj4ybdXS2AeetM7wu07y/xvnR0PHBory4mnR0J63HBuXnMtP4uNEN8Y0p9iFY4p95wyWtdtqlUu+uHjBGOlwAluX5whEz/vY0LSkTwFicSznYUKq3NorCxRdHI0O2M15wxfO6EHnfqYwxITyAFHistW8hkzC1bSpJ69cdUxs5Y91y3upRwYE7ZWtXb9SxjLYICjWO0psufEWYQ8VyROOwsVVufQWNkcvLy0dsZqzhm+dkIPOvUxhyUmkAOOFJet5DNmFqykST1746pjZi17rlvcSzkwJmytau36lzCWwQBHsdohm+SZgrCKAytTOjmct1jvZyfeoEPWG7UrdUcF7YfBlNmulvjgxoVu1p07ZGVZCzYXzjnKaDfFGPrAgLVp0+g21BdGOsxaBukvdWQnzxWJE5jAypRODue11/tBBzvxBh2y3qh9at3ZD4Mps10t8cGNC92sO7fPyoL+1oLNhXOOMtpNMYY+MGBt2jS6DfWFkS5ukDG1Us8xnd3lB51eyizUJbCyFqK3LGRsvraDn2rR2t147PrUlHFabABhSSXVwusrt/34mTLhCm5XrVvfpCZ86Ni60mlTw1P07MNBP8tKnisTp93lB51eyixUXf5cYWshestCxuZlO/ipFq3djceuT00Zp8UGEJZUUi28vnLbj58pE67gdtW69U1qwoeOrSudNjncVyg+ayIAooQFJB3eVHJpSp12ZTdsn2uZeZOgpn4YWN0ELzmnEoElOoyFzjmsxQ59ppTRm1Tlrfm0S3ek/Ph4gFsW+uCHtCibnYwk8XFecmigQZ5jNkhAXL1JwsrEibYAooQFJB3eVHKZ064krd2wfa5l5k2CmvphYHUTvOScSliW6DAWOuewFjv0mVJGb1KVt+bTLt2R8uPjAW5Z6IMf0qJsdjKSxI/nOQU/17RwOcJKQye61eFZZnP0sdbhnElQHhFrIkglLGvpw408x31pXcFz1ml6k5pEN5RPf2TpsuN+Xz3hGcqtvQCwXJc8GuQp2+6lnmV7vg2IU2MClyOsNHSiWx2eZTZHH2sdzpkE5RGxJoJUwrKWPtzIGLOcelhX8Jx1mt6kJtEN5dMfWbrsuN9XT3iGcmsvQLRcpxaa6bZHwFoqnvWToiU6bDuRZa6lY4lKCEQmEKXo5U3ugcU25fAIfU4Z7dguyof60KQnZZYzLNExB/KAFT+1zKl5zSbPjYkztZxrxLOWimf9pOiBDttOZJk7CcoSlRCITCBK0cub3AOLbcrhEfqcMtqxXZQP9aFJT8osZ1iiYw7kASs+TsIak5Bx94UAJqpIx4wzOu4ph7Wiclg66PjtJCFc4/6Yw7qA+8YX++TaGcpzLGvJx84g1nWhw9B56U38Racp5zF/R4a4jb8k++lfX205ypSyrZ0GE1WkY8YZHfeUw1pRsHTmHuj47SQhXOP+mMO6gPvGF/vk2hnKcyxrycfOINZ1ocPQee4m/pxtK6gf8Dxn2YQUN6d1JzLlDMIQCxTnVHetpMc5h1XsycixNhaziK31r0kTYZQ7x0xojcnW4a4/w15yHefWZU7Nf86yCckjp3UnMuUMwhALFOdUd62kxzmHVezJyLE2FrOIrfWvSRNhlDvHTGiSp24VBwzbzdhhqY054BLUHX7KTNgx8nPEnWs1epa1jE/O1Q/ECAvUur1h2c5xC8/Va8n0HnmSOGvE7WbssNTGHNElqDbnT5kJO0Z+jrhzrUbPspbxybn6gRhhgVq3NyzbOW5hqxfJ0yJysGs7qcbuJztUnNwzWofym/J8znilZ3UuNYYos2eR5ykfljxJnM3atpNq7H6yzdjtq9wzWts5zL8zZ7zSszqnjpsOlURmzyLP3AfJMzeiK8uDBWXHFlMtHsTTVueUTRHWKq64f0Xf1DHLJa3Otcq+t3w0eZI427UDC8qOLaZaPIin3YxTNkVoa7TMHXH/ir6pY5ZLWp3LlNSXSvL0cTnUXUsQqUswjmB1SkXYvXFBokMfCWtanaLnOZyFPEmc3bVtCSJ1CcYRrE4ptd0bFyQ69JGwptUpei51JnkuheyKcr2JQ0OTc+wuOXu2OgVKO747ZH3ajwq4tHONdYpO53gGeZI4+2vemzg0NDnH7pKzZ6tTSm/Hd4esT/tRAZd2rrFO0WmtM8lzLaQXzscuyoebs+vwZtiCaPZ+eGOfXeOX3iYSQ5bq3su/F/0+8PFnFvt3lL2UMYcedlE+3JxdhzfDFkSz98Mb++wav/Q2kRiyVPdcfpLnnmtnhG52/BJuzS7r01pkGDM9yiQXO/MWayjtUhB8HNglJENW6giozz7qa//2w7PHIAUAO34Jt2aX9WktMoyZLjHJJUXvsXHszFusobRLQfBxYJeQDFmpY/VYOz7Jc23EF8zPjmF6Y5/e/q5d1tuCqk4W7Y1jWivb27wA5eZBBNZGwI5hemOf3v6uXdbb2vqn5OeNY1or29u8AOU+8kHyPHLtGd0961P/2wp294GlJjNWcYaFdrRxQLs2FeWQzea9zdhhrfIgAlsg4Fmf+t9WsLsPLDWZsYozLLSjjQPatakoh2w2723GDmv16AfJ8+g1aPS3Y5+YCISZqrDYrCsTpLPnbeNM0RqX3h6ydsnOUT8OGgXlxeERsGOfmAiEmaqw2KwrE6Qzd9u4rQDz9pC1S3aO+nHgYUry9FA58D1Yl3a3G5CI9xu7G9GeYPH2zrVlBJnm+A/QPZWbuhwPAViXdrcbkIj3G7sb0Z7Q8PbOtWUEmeb4D9A9lJvkuYdayKyD59a0xAIL9egHJkRZN7SUE8QJi5sHEdgDAp5b0xILLNSjH5gQZd3QUk4QJyzuUzlInqdSk6Yc9h9XhFRwxgSbo41zmuJVl5hpa2fg4sOAFmcFEQM7QcD+44qQCs6YYHO0cc4uWDHT1s7AxYfBqVicUm6SpyBxgmfMMNUbC2CTAD2B6NSKfNTx21OrB5anGwHMMNUbC2CTAD2BqDvlMZ8cdfw2Be3/D6uo4pWewTzYAAAAAElFTkSuQmCC;" vertex="1" parent="1">
          <mxGeometry x="260" y="400" width="463" height="312" as="geometry" />
        </mxCell>
      </root>
    </mxGraphModel>
  </diagram>
</mxfile>
